<?xml version="1.0" encoding="UTF-8" standalone="no"?>
<!DOCTYPE svg PUBLIC "-//W3C//DTD SVG 1.1//EN" "http://www.w3.org/Graphics/SVG/1.1/DTD/svg11.dtd">
<svg width="100%" height="100%" viewBox="0 0 800 800" version="1.1" xmlns="http://www.w3.org/2000/svg" xmlns:xlink="http://www.w3.org/1999/xlink" xml:space="preserve" xmlns:serif="http://www.serif.com/" style="fill-rule:evenodd;clip-rule:evenodd;">
    <g id="Light-Mode" serif:id="Light Mode" transform="matrix(1,0,0,1,-0.00149268,-4.26326e-14)">
        <rect x="0.001" y="0" width="799.998" height="800" style="fill:none;"/>
        <clipPath id="_clip1">
            <rect x="0.001" y="0" width="799.998" height="800"/>
        </clipPath>
        <g clip-path="url(#_clip1)">
            <g id="bg" transform="matrix(1.02209,0,0,1.02141,-17.6686,-17.1283)">
                <rect x="17.288" y="16.769" width="782.711" height="783.231" style="fill:white;"/>
            </g>
            <g id="transparent_light_mode" transform="matrix(1,0,0,1,0.00149268,4.26326e-14)">
                <g id="drone_bomb" transform="matrix(1.16876,0,0,1.16876,-67.5016,-51.9196)">
                    <g id="bomb1_filled" transform="matrix(2.38772e-17,0.389945,-0.389945,2.38772e-17,555.978,297.762)">
                        <g id="bomb">
                            <g id="bomb1_filled1" serif:id="bomb1_filled">
                                <path d="M463.648,201.025L463.647,633.203L544.067,710.4L544.067,800L441.309,800L441.309,668.702L421.778,668.702L421.778,800L378.223,800L378.223,668.702L358.667,668.702L358.667,800L255.933,800L255.933,710.4L336.353,633.203L336.353,201.025C336.353,131.225 330.2,0 400,0C469.8,0 463.647,131.225 463.648,201.025Z"/>
                            </g>
                        </g>
                    </g>
                    <g id="holder" transform="matrix(0.960682,6.78807e-33,-6.78807e-33,0.960682,15.7283,73.5634)">
                        <g id="short">
                            <g transform="matrix(1,2.9001e-32,-2.3683e-32,1.13712,12.5429,-50.7292)">
                                <path d="M320,325.126L320,369.964L330,369.964L330,325.26L320,325.126Z"/>
                            </g>
                            <g transform="matrix(1,2.9001e-32,-2.3683e-32,1.13712,137.454,-50.7292)">
                                <path d="M320,325.126L320,369.964L330,369.964L330,325.26L320,325.126Z"/>
                            </g>
                        </g>
                    </g>
                    <g id="sharp" transform="matrix(0.279725,-1.02634e-48,1.02634e-48,0.279725,-137.073,91.946)">
                        <g id="drone">
                            <g id="sharp1" serif:id="sharp">
                                <g id="left">
                                    <path d="M1766.85,652.991L1324.85,652.991L1322.85,717.991L1758.85,666.991C1783.85,661.991 1766.85,652.991 1766.85,652.991Z" style="fill-rule:nonzero;"/>
                                    <path d="M1144.15,652.991L702.146,652.991C702.146,652.991 685.146,661.991 710.146,666.991L1146.15,717.991L1144.15,652.991Z" style="fill-rule:nonzero;"/>
                                </g>
                                <g id="right">
                                    <path d="M2081.15,666.991L2517.15,717.991L2515.15,652.991L2073.15,652.991C2073.15,652.991 2056.15,661.991 2081.15,666.991Z" style="fill-rule:nonzero;"/>
                                    <path d="M3137.85,652.991L2695.85,652.991L2693.85,717.991L3129.85,666.991C3154.85,661.991 3137.85,652.991 3137.85,652.991Z" style="fill-rule:nonzero;"/>
                                </g>
                                <path id="body" d="M2673.15,806.981L2673.15,648.991L2631.15,648.991L2631.15,612.991L2583.15,612.991L2583.15,648.991L2539.15,648.991L2539.15,806.991L2395.15,806.991L2395.15,777.991L1912.84,725.491L1468.15,777.991L1468.15,806.991L1302.15,806.991L1302.15,648.991L1260.15,648.991L1260.15,612.991L1212.15,612.991L1212.15,648.991L1168.15,648.991L1168.15,806.991C1168.15,806.991 1051.15,795.991 1066.15,926.991L1419.21,926.991C1471.22,939.208 1531.25,960.092 1566.15,994.991L1569.32,996.849L1677.09,1056.99L2162.2,1056.99L2267.8,992.476C2312.34,968.897 2369.45,943.892 2434.97,926.991L2768.15,926.991C2768.15,926.991 2790,804.711 2673.15,806.981Z" style="fill-rule:nonzero;"/>
                            </g>
                        </g>
                    </g>
                </g>
                <g id="anti" transform="matrix(0.64831,0,0,0.64831,140.676,140.676)">
                    <g transform="matrix(1.07806,0,0,1.07806,-31.2258,-31.2258)">
                        <path d="M400,66.667C583.972,66.667 733.333,216.028 733.333,400C733.333,583.972 583.972,733.333 400,733.333C216.028,733.333 66.667,583.972 66.667,400C66.667,216.028 216.028,66.667 400,66.667ZM400,100C234.425,100 100,234.425 100,400C100,565.575 234.425,700 400,700C565.575,700 700,565.575 700,400C700,234.425 565.575,100 400,100Z" style="fill:rgb(255,0,0);"/>
                    </g>
                    <g transform="matrix(1.0444,0.044398,0.044398,1.0444,-35.5184,-35.5184)">
                        <path d="M166.667,166.667L633.333,633.333" style="fill:none;fill-rule:nonzero;stroke:rgb(255,0,0);stroke-width:33.33px;"/>
                    </g>
                </g>
            </g>
        </g>
    </g>
</svg>
